<svg xmlns="http://www.w3.org/2000/svg" xmlns:xlink="http://www.w3.org/1999/xlink" viewBox="0 0 1305 398.5"><defs><style>.cls-1{fill:#d8d8d8;}.cls-2{fill:url(#linear-gradient);}.cls-3{fill:#fff;}.cls-4{fill:#c82864;}.cls-5{fill:#040404;opacity:0.5;isolation:isolate;}.cls-6{fill:#fbfbfb;}.cls-7{fill:#3278be;}</style><linearGradient id="linear-gradient" x1="652.5" y1="-178.11417" x2="652.5" y2="-135.61417" gradientTransform="matrix(1, 0, 0, -1, 0, -135.61417)" gradientUnits="userSpaceOnUse"><stop offset="0" stop-color="#040404" stop-opacity="0.2"/><stop offset="1" stop-color="#040404" stop-opacity="0"/></linearGradient></defs><g id="Layer_2" data-name="Layer 2"><g id="Layer_1-2" data-name="Layer 1"><rect class="cls-1" width="1305" height="398.5"/><rect class="cls-2" width="1305" height="42.5"/><rect class="cls-3" y="42.5" width="1305" height="356"/><path class="cls-4" d="M1038.5,221.5a87.75,87.75,0,1,1-87.75-87.75A87.75,87.75,0,0,1,1038.5,221.5Zm-87.75-80.291a80.291,80.291,0,1,0,80.291,80.291A80.291,80.291,0,0,0,950.75,141.209Z"/><circle class="cls-4" cx="950.75" cy="221.5" r="67.56799"/><path class="cls-5" d="M971.381,247.982l-51.5-51.5,10.239-10.239,51.5,51.5Zm-41.262,0-10.239-10.239,51.5-51.5,10.239,10.239Z"/><path class="cls-6" d="M971.381,252.369l-51.5-51.5L930.12,190.63l51.5,51.5Zm-41.262,0-10.239-10.239,51.5-51.5,10.239,10.239Z"/><path class="cls-7" d="M442,221.5a87.75,87.75,0,1,1-87.75-87.75A87.75,87.75,0,0,1,442,221.5Zm-87.75-80.291A80.291,80.291,0,1,0,434.541,221.5,80.291,80.291,0,0,0,354.25,141.209Z"/><circle class="cls-7" cx="354.25" cy="221.5" r="67.56702"/><path class="cls-5" d="M390.666,217.112a36.416,36.416,0,1,1-36.416-36.416,36.416,36.416,0,0,1,36.416,36.416Zm-36.416-21.06a21.06,21.06,0,1,0,21.06,21.06A21.06016,21.06016,0,0,0,354.25,196.052Z"/><path class="cls-6" d="M390.666,221.5a36.416,36.416,0,1,1-36.416-36.416A36.416,36.416,0,0,1,390.666,221.5ZM354.25,200.44a21.06,21.06,0,1,0,21.06,21.06A21.06016,21.06016,0,0,0,354.25,200.44Z"/></g></g></svg>