<svg xmlns="http://www.w3.org/2000/svg" xmlns:xlink="http://www.w3.org/1999/xlink" viewBox="0 0 1305 276"><defs><style>.cls-1{fill:#d8d8d8;}.cls-2{fill:url(#linear-gradient);}.cls-3{fill:url(#linear-gradient-2);}.cls-4{fill:#4d4d4d;}</style><linearGradient id="linear-gradient" x1="652.5" y1="697.88583" x2="652.5" y2="655.38583" gradientTransform="matrix(1, 0, 0, -1, 0, 931.38583)" gradientUnits="userSpaceOnUse"><stop offset="0" stop-color="#040404" stop-opacity="0.2"/><stop offset="1" stop-color="#040404" stop-opacity="0"/></linearGradient><linearGradient id="linear-gradient-2" x1="652.5" y1="931.38583" x2="652.5" y2="698.38583" gradientTransform="matrix(1, 0, 0, -1, 0, 931.38583)" gradientUnits="userSpaceOnUse"><stop offset="0" stop-color="#e4e4e4"/><stop offset="1" stop-color="#f9f9f9"/></linearGradient></defs><g id="Layer_2" data-name="Layer 2"><g id="Layer_1-2" data-name="Layer 1"><rect class="cls-1" width="1305" height="276"/><rect class="cls-2" y="233.5" width="1305" height="42.5"/><rect class="cls-3" width="1305" height="233"/><path class="cls-4" d="M454.83984,85.16171l4.22364,58.93994h3.83984L467.127,85.16171h8.25537l-4.7998,67.19531H451.38428l-4.79981-67.19531Z"/><path class="cls-4" d="M481.144,125.191a5.77647,5.77647,0,0,1,5.75928-5.75976h9.9834v-3.64746l-15.74268-3.168v-8.25537l18.14258,3.64794a7.66922,7.66922,0,0,1,5.85547,7.00733V152.357H486.90332a5.77648,5.77648,0,0,1-5.75928-5.75977Zm15.74268,18.91065v-16.415h-7.48731v16.415Z"/><path class="cls-4" d="M510.90332,110.1202a5.77647,5.77647,0,0,1,5.75928-5.75976h18.23877v14.39892H526.646v-6.14355h-7.48731v31.48584H526.646v-6.14356h8.25537v8.63916a5.77648,5.77648,0,0,1-5.75928,5.75977H516.6626a5.77648,5.77648,0,0,1-5.75928-5.75977Z"/><path class="cls-4" d="M540.6626,110.1202a5.77646,5.77646,0,0,1,5.75928-5.75976h18.23876v14.39892h-8.25537v-6.14355H548.918v31.48584h7.4873v-6.14356h8.25537v8.63916a5.77647,5.77647,0,0,1-5.75927,5.75977H546.42188a5.77647,5.77647,0,0,1-5.75928-5.75977Z"/><path class="cls-4" d="M571.09375,89.96151h8.25537v9.59912h-8.25537Zm0,14.39893h8.25537V152.357h-8.25537Z"/><path class="cls-4" d="M585.78076,110.1202a5.77647,5.77647,0,0,1,5.75928-5.75976h18.23877V152.357h-8.25537V112.61581h-7.48731V152.357h-8.25537Z"/><path class="cls-4" d="M615.54,110.1202a5.77647,5.77647,0,0,1,5.75928-5.75976h18.23877v27.166a5.77648,5.77648,0,0,1-5.75928,5.75977h-9.9834v6.81543h15.74268V152.357H621.29932a5.77648,5.77648,0,0,1-5.75928-5.75977Zm15.74267,18.91065v-16.415h-7.4873v16.415Z"/><path class="cls-4" d="M660.6582,90.92147a5.77636,5.77636,0,0,1,5.75879-5.75976h17.2793a5.77656,5.77656,0,0,1,5.75976,5.75976v55.67578a5.77657,5.77657,0,0,1-5.75976,5.75977h-4.03223l1.15235,4.7998h-8.25586l-1.15137-4.7998H666.417a5.77637,5.77637,0,0,1-5.75879-5.75977Zm20.542,53.18018V93.41708H668.91309v50.68457Z"/><path class="cls-4" d="M695.21777,90.92147a5.77636,5.77636,0,0,1,5.75879-5.75976h23.03907v31.96582a5.77658,5.77658,0,0,1-5.75977,5.75976h-1.15234l6.91211,29.46973h-8.25586l-6.91114-29.46973h-5.376V152.357h-8.25489Zm20.542,23.71045V93.41708H703.47266v21.21484Z"/><path class="cls-4" d="M745.13574,110.1202a5.77657,5.77657,0,0,1,5.75977-5.75976h18.23828v14.39892h-8.25488v-6.14355H753.3916v31.48584h7.48731v-6.14356h8.25488v8.63916A5.77637,5.77637,0,0,1,763.375,152.357H750.89551a5.77658,5.77658,0,0,1-5.75977-5.75977Z"/><path class="cls-4" d="M774.89551,110.1202a5.77636,5.77636,0,0,1,5.75879-5.75976h12.47949a5.77656,5.77656,0,0,1,5.75976,5.75976v36.47705a5.77657,5.77657,0,0,1-5.75976,5.75977H780.6543a5.77637,5.77637,0,0,1-5.75879-5.75977Zm15.74219,33.98145V112.61581h-7.48731v31.48584Z"/><path class="cls-4" d="M804.6543,110.1202a5.77656,5.77656,0,0,1,5.75976-5.75976h9.9834V85.16171h8.25488V152.357H810.41406a5.77657,5.77657,0,0,1-5.75976-5.75977Zm15.74316,33.98145V112.61581h-7.4873v31.48584Z"/><path class="cls-4" d="M834.41406,110.1202a5.77636,5.77636,0,0,1,5.75879-5.75976h18.23926v27.166a5.77658,5.77658,0,0,1-5.75977,5.75977H842.669v6.81543h15.74316V152.357H840.17285a5.77637,5.77637,0,0,1-5.75879-5.75977Zm15.74219,18.91065v-16.415H842.669v16.415Z"/></g></g></svg>